HIERARCHY
ROOT Hips
{
	OFFSET 0.00000 0.00000 0.00000
	CHANNELS 6 Xposition Yposition Zposition Zrotation Yrotation Xrotation 
	JOINT LHipJoint
	{
		OFFSET 0 0 0
		CHANNELS 3 Zrotation Yrotation Xrotation
		JOINT LeftHip
		{
			OFFSET 1.36337 -1.57426 1.11036
			CHANNELS 3 Zrotation Yrotation Xrotation
			JOINT LeftKnee
			{
				OFFSET 2.38468 -6.55187 0.00000
				CHANNELS 3 Zrotation Yrotation Xrotation
				JOINT LeftAnkle
				{
					OFFSET 2.37166 -6.51609 0.00000
					CHANNELS 3 Zrotation Yrotation Xrotation
					JOINT LeftToe
					{
						OFFSET 0.29078 -0.79891 2.01393
						CHANNELS 3 Zrotation Yrotation Xrotation
						End Site
						{
							OFFSET 0.00000 -0.00000 1.07924
						}
					}
				}
			}
		}
	}
	JOINT RHipJoint
	{
		OFFSET 0 0 0
		CHANNELS 3 Zrotation Yrotation Xrotation
		JOINT RightHip
		{
			OFFSET -1.36349 -1.57426 1.11036
			CHANNELS 3 Zrotation Yrotation Xrotation
			JOINT RightKnee
			{
				OFFSET -2.29562 -6.30717 0.00000
				CHANNELS 3 Zrotation Yrotation Xrotation
				JOINT RightAnkle
				{
					OFFSET -2.40985 -6.62100 0.00000
					CHANNELS 3 Zrotation Yrotation Xrotation
					JOINT RightToe
					{
						OFFSET -0.23197 -0.63733 1.92232
						CHANNELS 3 Zrotation Yrotation Xrotation
						End Site
						{
							OFFSET -0.00000 -0.00000 1.01562
						}
					}
				}
			}
		}
	}
	JOINT lowerback
	{
		OFFSET 0 0 0
		CHANNELS 3 Zrotation Yrotation Xrotation
		JOINT Chest
		{
			OFFSET -0.08565 2.03602 -0.24562
			CHANNELS 3 Zrotation Yrotation Xrotation
			JOINT Chest2
			{
				OFFSET -0.00036 2.05693 0.00216
				CHANNELS 3 Zrotation Yrotation Xrotation
				JOINT lowerneck
				{
					OFFSET 0 0 0
					CHANNELS 3 Zrotation Yrotation Xrotation
					JOINT Neck
					{
						OFFSET -0.03664 1.69515 0.31789
						CHANNELS 3 Zrotation Yrotation Xrotation
						JOINT Head
						{
							OFFSET 0.00932 1.70181 -0.46013
							CHANNELS 3 Zrotation Yrotation Xrotation
							End Site
							{
								OFFSET 0.01243 1.77620 -0.19377
							}
						}
					}
				}
				JOINT LeftCollar
				{
					OFFSET 0 0 0
					CHANNELS 3 Zrotation Yrotation Xrotation
					JOINT LeftShoulder
					{
						OFFSET 3.74344 0.81315 -0.36647
CHANNELS 3 Zrotation Xrotation Yrotation
						JOINT LeftElbow
						{
OFFSET 0 -4.971850 -0.000000
CHANNELS 3 Zrotation Xrotation Yrotation
							JOINT LeftWrist
							{
OFFSET 0 -3.358110 0.000000
CHANNELS 3 Zrotation Xrotation Yrotation
								JOINT lhand
								{
									OFFSET 0 0 0
CHANNELS 3 Zrotation Xrotation Yrotation
									JOINT LFingers
									{
OFFSET 0 -0.622780 0.000000
CHANNELS 3 Zrotation Xrotation Yrotation
										End Site
										{
OFFSET 0 -0.502100 0.000000
										}
									}
								}
								JOINT LThumb
								{
OFFSET 0 0.000000 0.000000
CHANNELS 3 Zrotation Xrotation Yrotation
									End Site
									{
OFFSET 0 -0.509760 0.509760
									}
								}
							}
						}
					}
				}
				JOINT RightCollar
				{
					OFFSET 0 0 0
					CHANNELS 3 Zrotation Yrotation Xrotation
					JOINT RightShoulder
					{
						OFFSET -3.75385 0.50666 -0.06525
CHANNELS 3 Zrotation Xrotation Yrotation
						JOINT RightElbow
						{
OFFSET 0 -4.964930 -0.000000
CHANNELS 3 Zrotation Xrotation Yrotation
							JOINT RightWrist
							{
OFFSET 0 -3.349290 0.000000
CHANNELS 3 Zrotation Xrotation Yrotation
								JOINT rhand
								{
									OFFSET 0 0 0
CHANNELS 3 Zrotation Xrotation Yrotation
									JOINT RFingers
									{
OFFSET 0 -0.638040 0.000000
CHANNELS 3 Zrotation Xrotation Yrotation
										End Site
										{
OFFSET 0 -0.514410 0.000000
										}
									}
								}
								JOINT RThumb
								{
OFFSET 0 0.000000 0.000000
CHANNELS 3 Zrotation Xrotation Yrotation
									End Site
									{
OFFSET 0 -0.522260 0.522260
									}
								}
							}
						}
					}
				}
			}
		}
	}
}
MOTION
Frames: 12
Frame Time: 0.008333333333333333
-21.797140 8.603843 0.959360 142.558412 66.851407 174.844815 0.000000 0.000000 0.000000 -11.794858 20.635363 -100.490326 35.463681 12.841807 141.220904 -0.199898 -27.921713 -18.560326 2.064817 -8.999275 -25.793435 0.000000 0.000000 0.000000 -22.999635 -54.372855 -59.650128 -35.712135 -12.533936 142.351979 7.976848 46.579962 0.465150 -0.735929 5.478171 -15.278204 -6.501189 -5.405239 38.699092 -2.427079 -7.606857 9.737606 3.573978 -2.788578 -7.464417 -2.423993 3.820462 -35.852514 -7.782539 8.316660 12.846820 -0.956643 2.768768 10.019170 0.000000 0.000000 0.000000 80.615592 -84.993393 22.499496 8.981508 -15.127839 1.198223 26.605063 4.198779 13.225642 0.000000 0.000000 0.000000 -7.125000 0.000000 0.000000 -0.508573 15.252964 -0.357327 0.000000 0.000000 0.000000 1.015370 -55.915103 55.734313 -11.688125 -19.335122 -1.997996 -49.609591 21.787011 29.279069 0.000000 0.000000 0.000000 7.125000 0.000000 0.000000 -29.366503 68.747468 17.288210
-21.915967 8.664249 0.903076 143.083339 67.214685 174.905010 0.000000 0.000000 0.000000 -12.135408 19.729096 -100.219094 35.414971 12.900597 141.002473 0.068042 -27.055740 -19.538890 1.957358 -8.775946 -25.097363 0.000000 0.000000 0.000000 -22.229261 -54.296457 -60.594252 -35.696935 -12.553155 142.282012 7.550982 45.976543 -0.593108 -0.667672 5.224594 -14.550383 -6.455801 -4.965077 39.535374 -2.241761 -7.102360 9.530010 3.610519 -2.526083 -7.993343 -2.445452 3.613212 -35.658750 -7.994513 8.076538 12.570481 -1.075029 2.655342 9.895498 0.000000 0.000000 0.000000 81.008609 -84.235834 18.396191 10.030881 -16.784413 1.486805 25.937719 -0.785933 13.490767 0.000000 0.000000 0.000000 -7.125000 0.000000 0.000000 -0.985536 15.043869 -0.696440 0.000000 0.000000 0.000000 -0.889987 -56.215347 53.761079 -11.520401 -19.081462 -1.942659 -48.695153 20.092923 28.278470 0.000000 0.000000 0.000000 7.125000 0.000000 0.000000 -27.014606 67.312382 14.953243
-22.032664 8.742333 0.844988 143.628534 67.686967 175.177524 0.000000 0.000000 0.000000 -12.442065 18.602637 -99.958505 35.314962 13.019845 140.556969 0.288863 -26.254155 -20.315280 1.893114 -8.639777 -24.674955 0.000000 0.000000 0.000000 -20.882859 -53.879410 -62.288156 -35.655082 -12.605716 142.090036 7.191702 45.353573 -1.236685 -0.597869 4.947997 -13.760676 -6.317674 -4.540591 40.248317 -2.083580 -6.570382 9.380319 3.543387 -2.259048 -8.431970 -2.465593 3.346083 -35.465209 -8.298442 7.762683 12.043184 -1.238792 2.514466 9.683121 0.000000 0.000000 0.000000 82.934762 -83.345454 16.193419 11.035124 -18.339484 1.789024 25.997201 -3.942888 13.677857 0.000000 0.000000 0.000000 -7.125000 0.000000 0.000000 -0.959130 14.830855 -0.681667 0.000000 0.000000 0.000000 -2.953285 -56.696468 51.760234 -11.505675 -19.059145 -1.937838 -48.120255 19.484701 28.511331 0.000000 0.000000 0.000000 7.125000 0.000000 0.000000 -26.033608 67.403154 14.419996
-22.144321 8.848655 0.789454 144.200132 68.333496 175.501666 0.000000 0.000000 0.000000 -12.783586 17.588487 -99.676509 35.167667 13.192146 139.907403 0.508052 -25.327444 -21.036993 1.881762 -8.615380 -24.599355 0.000000 0.000000 0.000000 -19.307856 -53.109774 -64.120390 -35.554821 -12.730188 141.632927 7.084999 44.810766 -0.498956 -0.528938 4.659421 -12.939918 -5.913208 -4.285639 40.856566 -2.263687 -6.120255 9.463403 2.990724 -2.028164 -8.630672 -2.425269 3.042397 -35.867606 -8.209860 7.333800 11.703688 -1.289943 2.347089 9.597653 0.000000 0.000000 0.000000 87.274887 -82.163607 16.758380 12.006342 -19.812119 2.105990 26.698797 -5.163748 13.820655 0.000000 0.000000 0.000000 -7.125000 0.000000 0.000000 -0.492338 14.584109 -0.352176 0.000000 0.000000 0.000000 -4.322344 -57.845329 49.589667 -11.525478 -19.089179 -1.944339 -46.706491 19.685668 31.208223 0.000000 0.000000 0.000000 7.125000 0.000000 0.000000 -24.398387 70.034496 14.877884
-22.258805 8.979433 0.726639 144.884806 68.943689 176.157973 0.000000 0.000000 0.000000 -13.249916 16.070109 -99.622824 34.981913 13.403863 139.099722 0.874670 -23.702356 -22.296507 1.986575 -8.837704 -25.289115 0.000000 0.000000 0.000000 -17.452938 -52.195522 -66.400181 -35.400125 -12.918337 140.936154 7.107629 44.170841 1.472847 -0.547948 4.742101 -13.174418 -5.673592 -3.815774 41.259066 -1.998370 -5.430165 9.515618 2.888712 -1.713637 -8.743157 -2.702735 2.490697 -35.343656 -8.287795 6.668397 10.841377 -1.392611 2.088148 9.184495 0.000000 0.000000 0.000000 90.224288 -81.407685 17.171977 12.848745 -21.064284 2.399246 27.452935 -5.921047 14.126147 0.000000 0.000000 0.000000 -7.125000 0.000000 0.000000 -0.006246 14.145901 -0.004191 0.000000 0.000000 0.000000 -6.702301 -59.091491 45.668726 -11.682823 -19.327121 -1.996116 -43.740349 18.969914 34.983766 0.000000 0.000000 0.000000 7.125000 0.000000 0.000000 -19.094724 73.299531 12.895827
-22.366488 9.145226 0.663769 146.185292 69.679294 176.777534 0.000000 0.000000 0.000000 -13.400776 15.068290 -98.490130 34.725035 13.686845 138.002698 1.190330 -22.377302 -23.499256 1.983404 -8.831526 -25.269626 0.000000 0.000000 0.000000 -15.932466 -50.525434 -67.502883 -35.145145 -13.218388 139.808439 7.068180 43.420318 3.543596 -0.618788 5.033951 -14.005325 -4.961998 -3.612678 42.731036 -2.152624 -4.924791 9.550862 2.191080 -1.434848 -9.260139 -2.910921 1.869347 -35.281272 -7.731416 5.784762 10.206732 -1.315895 1.778737 8.883054 0.000000 0.000000 0.000000 92.939909 -80.192041 16.511429 13.873067 -22.552780 2.779417 27.807338 -7.848147 14.370029 0.000000 0.000000 0.000000 -7.125000 0.000000 0.000000 0.211648 13.826325 0.154974 0.000000 0.000000 0.000000 -8.096687 -59.991470 42.927285 -11.513234 -19.070632 -1.940333 -42.844536 19.072818 35.378857 0.000000 0.000000 0.000000 7.125000 0.000000 0.000000 -17.257569 73.451289 11.718055
-22.461488 9.336923 0.612497 148.041968 70.858488 177.514539 0.000000 0.000000 0.000000 -13.277170 15.219262 -96.805189 34.413403 14.014823 136.702040 1.429504 -21.485881 -24.505026 1.996919 -8.859063 -25.355918 0.000000 0.000000 0.000000 -14.269411 -48.020232 -68.167710 -34.845647 -13.555145 138.515551 6.875954 42.714889 4.321243 -0.758182 5.555886 -15.502493 -4.504131 -3.159828 44.868977 -2.241238 -4.208620 9.560220 1.592389 -1.050198 -9.935516 -3.317703 1.098358 -35.270405 -6.891120 4.746605 9.456480 -1.131772 1.424762 8.536531 0.000000 0.000000 0.000000 95.734620 -78.792145 15.927167 14.940324 -24.061603 3.202363 28.112223 -10.461537 14.752272 0.000000 0.000000 0.000000 -7.125000 0.000000 0.000000 0.381099 13.357556 0.282733 0.000000 0.000000 0.000000 -9.474496 -60.821054 40.406010 -11.301671 -18.749142 -1.871830 -42.607304 19.034282 34.637840 0.000000 0.000000 0.000000 7.125000 0.000000 0.000000 -16.798563 72.564282 11.083207
-22.554688 9.533621 0.566627 150.207441 72.172771 178.872012 0.000000 0.000000 0.000000 -13.158755 15.351153 -95.685503 34.071656 14.357708 135.307997 1.741266 -19.876057 -25.707289 2.185959 -9.241656 -26.555170 0.000000 0.000000 0.000000 -12.305595 -45.618119 -69.434896 -34.570635 -13.851205 137.354504 6.680090 42.310523 3.964785 -1.033871 6.460998 -18.130303 -4.131243 -2.536118 46.588334 -2.269547 -3.319850 9.537843 0.994940 -0.615994 -10.475486 -3.646839 0.230677 -34.981219 -6.089284 3.541825 8.538703 -1.006520 0.998658 8.097618 0.000000 0.000000 0.000000 98.254141 -77.447606 15.055069 16.052935 -25.589435 3.670508 28.265481 -12.695885 14.821445 0.000000 0.000000 0.000000 -7.125000 0.000000 0.000000 0.477252 13.258083 0.355105 0.000000 0.000000 0.000000 -11.200596 -61.715344 37.182576 -10.997720 -18.284287 -1.775504 -41.588646 18.758447 33.858518 0.000000 0.000000 0.000000 7.125000 0.000000 0.000000 -14.877526 71.380054 9.423866
-22.658693 9.710088 0.514014 152.725250 73.263918 181.018092 0.000000 0.000000 0.000000 -12.700457 14.514012 -95.007563 33.757663 14.658144 134.055015 1.985435 -18.246258 -26.600835 2.309146 -9.480916 -27.312683 0.000000 0.000000 0.000000 -10.548535 -43.891444 -71.082540 -34.337772 -14.091983 136.391064 6.635523 42.198148 3.952270 -1.245930 7.077207 -19.944419 -3.309678 -1.912616 47.852800 -2.545829 -2.238731 9.410763 -0.250369 -0.114480 -10.647730 -2.641834 -0.527791 -34.478698 -5.881139 1.991998 7.353410 -1.322581 0.391667 7.589236 0.000000 0.000000 0.000000 101.988741 -76.907688 15.201555 17.156738 -27.061510 4.159712 28.241385 -13.837293 14.801868 0.000000 0.000000 0.000000 -7.125000 0.000000 0.000000 0.462963 13.283342 0.344272 0.000000 0.000000 0.000000 -13.720980 -62.755307 31.587166 -10.564664 -17.617665 -1.641984 -40.593170 18.468092 31.915142 0.000000 0.000000 0.000000 7.125000 0.000000 0.000000 -13.270821 68.903743 7.645421
-22.757770 9.888615 0.457442 155.408015 74.365795 182.882352 0.000000 0.000000 0.000000 -12.129403 14.491855 -93.624027 33.441794 14.946924 132.819545 2.049362 -18.168737 -26.939809 2.075839 -9.015689 -25.849139 0.000000 0.000000 0.000000 -9.390277 -42.125372 -71.759813 -34.050317 -14.378121 135.222870 6.301439 41.392653 3.581810 -1.144279 6.774819 -19.056757 -2.688491 -1.549207 50.168703 -2.716768 -1.579258 8.632745 -1.167193 0.219861 -10.956237 -2.738786 -1.349528 -34.110686 -4.946571 0.752354 6.272481 -1.157748 -0.046661 7.118617 0.000000 0.000000 0.000000 103.044266 -75.604532 13.607362 18.148117 -28.341200 4.622067 28.553319 -14.444479 14.967384 0.000000 0.000000 0.000000 -7.125000 0.000000 0.000000 0.655999 13.052504 0.490860 0.000000 0.000000 0.000000 -15.481255 -63.787073 27.713586 -10.136923 -16.952268 -1.515640 -39.802390 18.513148 30.628386 0.000000 0.000000 0.000000 7.125000 0.000000 0.000000 -12.062452 67.212593 6.427550
-22.854200 10.058952 0.403648 157.956967 75.458839 184.520200 0.000000 0.000000 0.000000 -11.706649 14.545871 -92.107370 33.116494 15.231844 131.569759 2.160133 -17.864126 -27.485801 1.865324 -8.579818 -24.489496 0.000000 0.000000 0.000000 -8.419537 -40.621225 -72.414162 -33.752623 -14.662826 134.035227 5.372159 39.470294 1.071805 -0.764548 5.537653 -15.460100 -1.955217 -1.249245 51.850226 -3.193744 -0.885525 8.663982 -2.371793 0.567400 -11.182327 -2.408836 -2.201023 -34.131806 -4.016988 -0.654128 5.333479 -1.085582 -0.571499 6.768794 0.000000 0.000000 0.000000 105.227981 -74.297017 12.611510 19.279417 -29.760362 5.170793 29.051317 -15.438485 14.913302 0.000000 0.000000 0.000000 -7.125000 0.000000 0.000000 0.995107 13.037759 0.745152 0.000000 0.000000 0.000000 -17.654489 -65.061903 23.193983 -9.591309 -16.097222 -1.359865 -37.379773 19.764958 33.870996 0.000000 0.000000 0.000000 7.125000 0.000000 0.000000 -7.320276 70.026183 4.334241
-22.951205 10.191661 0.352573 160.539491 76.526474 186.430411 0.000000 0.000000 0.000000 -11.450950 14.428825 -91.152556 32.851849 15.454841 130.568560 2.359303 -16.721315 -28.340477 1.901006 -8.656319 -24.726343 0.000000 0.000000 0.000000 -7.637729 -39.343606 -73.537108 -33.499173 -14.895966 133.041303 4.563935 37.612929 -1.078250 -0.456159 4.311010 -11.956506 -1.631949 -1.011791 53.035515 -3.357033 -0.473622 8.534826 -2.913850 0.760157 -11.468266 -2.880061 -2.876305 -33.950735 -2.952236 -1.511463 4.655380 -0.760717 -0.858613 6.503523 0.000000 0.000000 0.000000 103.962471 -72.487681 9.231232 20.291787 -30.988243 5.682706 29.556374 -16.430598 14.976496 0.000000 0.000000 0.000000 -7.125000 0.000000 0.000000 1.326285 12.888642 0.997787 0.000000 0.000000 0.000000 -19.035141 -65.964162 21.199822 -9.148664 -15.396299 -1.239969 -36.843107 19.535949 34.458668 0.000000 0.000000 0.000000 7.125000 0.000000 0.000000 -6.232528 70.495666 3.774983
